<?xml version="1.0" encoding="utf-8"?>
<!-- Generator: Adobe Illustrator 23.0.0, SVG Export Plug-In . SVG Version: 6.00 Build 0)  -->
<svg version="1.1" id="Layer_1" xmlns="http://www.w3.org/2000/svg" xmlns:xlink="http://www.w3.org/1999/xlink" x="0px" y="0px"
	 width="25px" height="25px" viewBox="0 0 26 26" style="enable-background:new 0 0 26 26;" xml:space="preserve">
<style type="text/css">
	.st0{fill:#293E40;}
	.st1{clip-path:url(#SVGID_2_);}
</style>
<g>
	<g>
		<path class="st0" d="M13,25.5C6.11,25.5,0.5,19.89,0.5,13S6.11,0.5,13,0.5S25.5,6.11,25.5,13S19.89,25.5,13,25.5z M13,2.17
			C7.03,2.17,2.17,7.03,2.17,13S7.03,23.83,13,23.83S23.83,18.97,23.83,13S18.97,2.17,13,2.17z"/>
	</g>
</g>
<g>
	<defs>
		<circle id="SVGID_1_" cx="13" cy="13" r="10.88"/>
	</defs>
	<clipPath id="SVGID_2_">
		<use xlink:href="#SVGID_1_"  style="overflow:visible;"/>
	</clipPath>
	<g class="st1">
		<g>
			<path class="st0" d="M16.4,14.9c0.87-0.87,1.4-2.07,1.4-3.39c0-2.65-2.16-4.81-4.81-4.81s-4.81,2.16-4.81,4.81
				c0,1.32,0.54,2.52,1.4,3.39c-3.08,0.96-5.25,3.19-5.25,5.78v6.21c0,0.53,0.43,0.96,0.96,0.96s0.96-0.43,0.96-0.96v-6.21
				c0-2.36,3.08-4.36,6.73-4.36s6.73,2,6.73,4.36v6.21c0,0.53,0.43,0.96,0.96,0.96s0.96-0.43,0.96-0.96v-6.21
				C21.65,18.09,19.48,15.86,16.4,14.9z M10.12,11.51c0-1.59,1.29-2.88,2.88-2.88s2.88,1.29,2.88,2.88s-1.29,2.88-2.88,2.88
				S10.12,13.1,10.12,11.51z"/>
		</g>
	</g>
</g>
</svg>
